{"title":"Batti Gul Powerful [2010] Marathi Xvid 1 CD DTHRip MDG@Mastitorr","uid":5935845,"size":721802974,"categoryP":"video","categoryS":"movies","magnet":"?xt=urn:btih:dc2d29c943c06ab42cf42ab32030095a2e0a13aa&amp;dn=Batti+Gul+Powerful+%5B2010%5D+Marathi+Xvid+1+CD+DTHRip+MDG%40Mastitorr&amp;tr=udp%3A%2F%2Ftracker.openbittorrent.com%3A80&amp;tr=udp%3A%2F%2Fopen.demonii.com%3A1337&amp;tr=udp%3A%2F%2Ftracker.coppersurfer.tk%3A6969&amp;tr=udp%3A%2F%2Fexodus.desync.com%3A6969","seeders":0,"leechers":1,"uploader":"amanrulz","files":1,"time":1288945589,"description":"mastitorrents.com\n &lt;a href=&quot;\nhttp://mastitorrents.com/forums/index.php&quot; rel=&quot;nofollow&quot; target=&quot;_NEW&quot;&gt;\nhttp://mastitorrents.com/forums/index.php&lt;/a&gt;\n\nInfo -\nCast -\n\n\nMakarand Anaspure\nJyoti Joshi\nBhushan Kadu\nPrakash Dhotre\nSheetal Shukl\n\nGeneral\nName : Batti Gul Powerful\nFormat : AVI\nFormat/Info : Audio Video Interleave\nFormat profile : OpenDML\nFile size : 688 MiB\nDuration : 1h 54mn\nOverall bit rate : 837 Kbps\nWriting application : AVI-Mux GUI 1.17.8.3\n\n\nVideo\nID : 0\nFormat : MPEG-4 Visual\nFormat profile : Advanced Simple@L5\nFormat settings, BVOP : Yes\nFormat settings, QPel : No\nFormat settings, GMC : No warppoints\nFormat settings, Matrix : Default (H.263)\nCodec ID : XVID\nCodec ID/Hint : XviD\nDuration : 1h 54mn\nBit rate : 770 Kbps\nWidth : 608 pixels\nHeight : 256 pixels\nDisplay aspect ratio : 2.35:1\nFrame rate : 25.000 fps\nColor space : YUV\nChroma subsampling : 4:2:0\nBit depth : 8 bits\nScan type : Progressive\nBits/(Pixel*Frame) : 0.198\nStream size : 633 MiB (92%)\nWriting library : XviD 1.2.1\n\n\nAudio\nID : 1\nFormat : MPEG Audio\nFormat version : Version 2\nFormat profile : Layer 3\nMode : Joint stereo\nMode extension : MS Stereo\nCodec ID : 55\nCodec ID/Hint : MP3\nDuration : 1h 54mn\nBit rate mode : Constant\nBit rate : 64.0 Kbps\nChannel(s) : 2 channels\nSampling rate : 24.0 KHz\nStream size : 52.6 MiB (8%)\nAlignment : Aligned on interleaves\nInterleave, duration : 874 ms (21.84 video frames)\nInterleave, preload duration : 216 ms\n\n","torrent":{"xt":"urn:btih:dc2d29c943c06ab42cf42ab32030095a2e0a13aa","amp;dn":"Batti+Gul+Powerful+%5B2010%5D+Marathi+Xvid+1+CD+DTHRip+MDG%40Mastitorr","amp;tr":["udp%3A%2F%2Ftracker.openbittorrent.com%3A80","udp%3A%2F%2Fopen.demonii.com%3A1337","udp%3A%2F%2Ftracker.coppersurfer.tk%3A6969","udp%3A%2F%2Fexodus.desync.com%3A6969"],"infoHash":"dc2d29c943c06ab42cf42ab32030095a2e0a13aa","infoHashBuffer":{"type":"Buffer","data":[220,45,41,201,67,192,106,180,44,244,42,179,32,48,9,90,46,10,19,170]},"announce":[],"urlList":[]}}